<svg xmlns="http://www.w3.org/2000/svg" viewBox="0 0 512 512" width="512" height="512">
  <defs>
    <linearGradient id="grad" x1="0%" y1="0%" x2="100%" y2="100%">
      <stop offset="0%" style="stop-color:#22c55e;stop-opacity:1" />
      <stop offset="100%" style="stop-color:#16a34a;stop-opacity:1" />
    </linearGradient>
  </defs>

  <!-- Background -->
  <rect width="512" height="512" rx="100" fill="url(#grad)"/>

  <!-- Leaf icon -->
  <g transform="translate(128, 128)">
    <!-- Main leaf -->
    <path d="M128 0C57.3 0 0 57.3 0 128c0 70.7 57.3 128 128 128c35.3 0 67.3-14.3 90.5-37.5L256 256l37.5-37.5C316.7 195.3 331 163.3 331 128C331 57.3 273.7 0 203 0H128z"
          fill="white" opacity="0.9"/>

    <!-- Leaf vein -->
    <path d="M128 32c-53 0-96 43-96 96s43 96 96 96c26.5 0 50.5-10.7 67.9-28.1L128 128V32z"
          fill="white" opacity="0.6"/>

    <!-- Small leaf -->
    <circle cx="220" cy="180" r="35" fill="white" opacity="0.7"/>
  </g>

  <!-- Text -->
  <text x="256" y="430" font-family="Arial, sans-serif" font-size="80" font-weight="bold" fill="white" text-anchor="middle">
    AMV
  </text>
</svg>
